# xmcd CD database file
#
# Track frame offsets:
#	150
#	11890
#	23307
#	36436
#	50023
#	62909
#	77231
#	91930
#	107841
#	120314
#	133823
#	149304
#	159388
#	172788
#	185875
#	200122
#	211319
#	224877
#	234183
#	246286
#
# Disc length: 3438 seconds
#
# Revision: 0
# Processed by: cddbd v1.5.2PL0 Copyright (c) Steve Scherf et al.
# Submitted via: CDex 1.51
#
DISCID=250d6c14
DTITLE=Various Artist - Best of the 40's
DYEAR=2005
DGENRE=Jazz
TTITLE0=The Andrews Sisters/Rum And Coca-Cola
TTITLE1=Bing Crosby/Swinging On A Star
TTITLE2=Nat 'King' Cole/Nature Boy
TTITLE3=Frank Sinatra/Oh What It Seemed To Be
TTITLE4=Peggy Lee/Manana
TTITLE5=Perry Como/Till The End Of Time
TTITLE6=Vic Damone/You're Breaking My Heart
TTITLE7=Glenn Miller/In The Mood
TTITLE8=The Ink Spots/The Gypsy
TTITLE9=Frankie Laine/That Lucky Old Sun
TTITLE10=Jimmy Dorsey/Amapola
TTITLE11=Art Mooney/I'm Looking Over A Four Leaf Clover
TTITLE12=Vaughn Monroe/Riders In The Sky
TTITLE13=The Mills Brothers/Paper Doll
TTITLE14=Ella Fitzgerald and The Ink Spots/Into Each Life Some Rain Must Fall
TTITLE15=Guy Lombardo/It's Love-Love-Love
TTITLE16=Louis Jordan/G.I. Jive
TTITLE17=Dinah Shore/Buttons And Bows
TTITLE18=Count Basie/Open The Door Richard
TTITLE19=Ted Weems/Heartaches
EXTD=YEAR: 2005
EXTT0=
EXTT1=
EXTT2=
EXTT3=
EXTT4=
EXTT5=
EXTT6=
EXTT7=
EXTT8=
EXTT9=
EXTT10=
EXTT11=
EXTT12=
EXTT13=
EXTT14=
EXTT15=
EXTT16=
EXTT17=
EXTT18=
EXTT19=
PLAYORDER=
